<svg width="64" height="64" viewBox="0 0 64 64" fill="none" xmlns="http://www.w3.org/2000/svg">
<path d="M43 46.1V43C43 42.7348 42.8946 42.4804 42.7071 42.2929C42.5196 42.1054 42.2652 42 42 42H40V25C40 24.7348 39.8946 24.4804 39.7071 24.2929C39.5196 24.1054 39.2652 24 39 24H38V16H39C39.2652 16 39.5196 15.8946 39.7071 15.7071C39.8946 15.5196 40 15.2652 40 15C40 14.7348 39.8946 14.4804 39.7071 14.2929C39.5196 14.1054 39.2652 14 39 14H37V11.41L41.71 6.71C41.8942 6.51932 41.998 6.26511 42 6V3C42 2.73478 41.8946 2.48043 41.7071 2.29289C41.5196 2.10536 41.2652 2 41 2H23C22.7348 2 22.4804 2.10536 22.2929 2.29289C22.1054 2.48043 22 2.73478 22 3V6C22.002 6.26511 22.1058 6.51932 22.29 6.71L27 11.41V14H25C24.7348 14 24.4804 14.1054 24.2929 14.2929C24.1054 14.4804 24 14.7348 24 15C24 15.2652 24.1054 15.5196 24.2929 15.7071C24.4804 15.8946 24.7348 16 25 16H26V24H25C24.7348 24 24.4804 24.1054 24.2929 24.2929C24.1054 24.4804 24 24.7348 24 25V42H22C21.7348 42 21.4804 42.1054 21.2929 42.2929C21.1054 42.4804 21 42.7348 21 43V47C21 47.2652 21.1054 47.5196 21.2929 47.7071C21.4804 47.8946 21.7348 48 22 48H23V57C23.0016 58.3256 23.5289 59.5964 24.4662 60.5338C25.4036 61.4711 26.6744 61.9984 28 62H36C37.1522 61.9985 38.2687 61.5999 39.1613 60.8713C40.0538 60.1427 40.6679 59.1286 40.9 58H42C43.3256 57.9984 44.5964 57.4711 45.5338 56.5338C46.4711 55.5964 46.9984 54.3256 47 53V51C46.9985 49.8478 46.5999 48.7313 45.8713 47.8387C45.1427 46.9462 44.1286 46.3321 43 46.1V46.1ZM29 14H35V16H29V14ZM26 39H28C28.2652 39 28.5196 38.8946 28.7071 38.7071C28.8946 38.5196 29 38.2652 29 38C29 37.7348 28.8946 37.4804 28.7071 37.2929C28.5196 37.1054 28.2652 37 28 37H26V35H28C28.2652 35 28.5196 34.8946 28.7071 34.7071C28.8946 34.5196 29 34.2652 29 34C29 33.7348 28.8946 33.4804 28.7071 33.2929C28.5196 33.1054 28.2652 33 28 33H26V31H28C28.2652 31 28.5196 30.8946 28.7071 30.7071C28.8946 30.5196 29 30.2652 29 30C29 29.7348 28.8946 29.4804 28.7071 29.2929C28.5196 29.1054 28.2652 29 28 29H26V26H38V42H26V39ZM39 50.892C36.7495 51.4513 34.3826 51.3182 32.209 50.51C29.906 49.6565 27.4148 49.4426 25 49.891V48H39V50.892ZM45 53C45 53.7956 44.6839 54.5587 44.1213 55.1213C43.5587 55.6839 42.7956 56 42 56H41V48H42C42.7956 48 43.5587 48.3161 44.1213 48.8787C44.6839 49.4413 45 50.2044 45 51V53Z" fill="#ffffff"/>
</svg>