<?xml version="1.0" encoding="UTF-8" standalone="no"?> <svg width="64" height="64" viewBox="0 0 64 64" fill="none" xmlns="http://www.w3.org/2000/svg">
<path d="M24 47H40V57C40 58.0609 39.5786 59.0783 38.8284 59.8284C38.0783 60.5786 37.0609 61 36 61H28C26.9391 61 25.9217 60.5786 25.1716 59.8284C24.4214 59.0783 24 58.0609 24 57V47Z" fill="#E9F1F2"/>
<path d="M35 58C33.1435 58 31.363 57.2625 30.0503 55.9497C28.7375 54.637 28 52.8565 28 51V49H40V47H24V57C24 58.0609 24.4214 59.0783 25.1716 59.8284C25.9217 60.5786 26.9391 61 28 61H36C36.8847 60.9983 37.7438 60.7027 38.4423 60.1597C39.1408 59.6167 39.6391 58.857 39.859 58H35Z" fill="#D0D8DA"/>
<path d="M42 43H22V47H42V43Z" fill="#93999A"/>
<path d="M39 25H25V43H39V25Z" fill="#E9F1F2"/>
<path d="M37 15H27V25H37V15Z" fill="#B8BEBF"/>
<path d="M23 3V6L28 11V15H36V11L41 6V3H23Z" fill="#93999A"/>
<path d="M28 61H36C37.0609 61 38.0783 60.5786 38.8284 59.8284C39.5786 59.0783 40 58.0609 40 57V51.657C37.3388 52.4989 34.4723 52.425 31.858 51.447C29.3523 50.5072 26.6111 50.3968 24.038 51.132L24 51.143V57C24 58.0609 24.4214 59.0783 25.1716 59.8284C25.9217 60.5786 26.9391 61 28 61Z" fill="#EDB88E"/>
<path d="M28.121 8.121C27.4485 7.44849 26.9151 6.65011 26.5512 5.77145C26.1873 4.89279 26 3.95105 26 3H23V6L28 11V15H36V11H35.071C32.4643 10.9997 29.9644 9.96413 28.121 8.121V8.121Z" fill="#656B76"/>
<path d="M35 22C33.6739 22 32.4021 21.4732 31.4645 20.5355C30.5268 19.5979 30 18.3261 30 17V15H27V25H37V22H35Z" fill="#93999A"/>
<path d="M36 38C34.1435 38 32.363 37.2625 31.0503 35.9497C29.7375 34.637 29 32.8565 29 31V25H25V43H39V38H36Z" fill="#D0D8DA"/>
<path d="M28 45C27.3814 44.9989 26.7784 44.8059 26.274 44.4477C25.7697 44.0895 25.3888 43.5837 25.184 43H22V47H42V45H28Z" fill="#656B76"/>
<path d="M39.87 58C39.6497 58.8588 39.1497 59.6198 38.449 60.163C37.7483 60.7062 36.8866 61.0007 36 61H28C26.9391 61 25.9217 60.5786 25.1716 59.8284C24.4214 59.0783 24 58.0609 24 57V51.14L24.04 51.13C25.3268 50.7649 26.6635 50.6063 28 50.66V51C28 52.8565 28.7375 54.637 30.0503 55.9497C31.363 57.2625 33.1435 58 35 58H39.87Z" fill="#DA9367"/>
<path d="M43 46.1V43C43 42.7348 42.8946 42.4804 42.7071 42.2929C42.5196 42.1054 42.2652 42 42 42H40V35C40 34.7348 39.8946 34.4804 39.7071 34.2929C39.5196 34.1054 39.2652 34 39 34C38.7348 34 38.4804 34.1054 38.2929 34.2929C38.1054 34.4804 38 34.7348 38 35V42H26V39H28C28.2652 39 28.5196 38.8946 28.7071 38.7071C28.8946 38.5196 29 38.2652 29 38C29 37.7348 28.8946 37.4804 28.7071 37.2929C28.5196 37.1054 28.2652 37 28 37H26V35H28C28.2652 35 28.5196 34.8946 28.7071 34.7071C28.8946 34.5196 29 34.2652 29 34C29 33.7348 28.8946 33.4804 28.7071 33.2929C28.5196 33.1054 28.2652 33 28 33H26V31H28C28.2652 31 28.5196 30.8946 28.7071 30.7071C28.8946 30.5196 29 30.2652 29 30C29 29.7348 28.8946 29.4804 28.7071 29.2929C28.5196 29.1054 28.2652 29 28 29H26V26H38V31C38 31.2652 38.1054 31.5196 38.2929 31.7071C38.4804 31.8946 38.7348 32 39 32C39.2652 32 39.5196 31.8946 39.7071 31.7071C39.8946 31.5196 40 31.2652 40 31V25C40 24.7348 39.8946 24.4804 39.7071 24.2929C39.5196 24.1054 39.2652 24 39 24H38V16H39C39.2652 16 39.5196 15.8946 39.7071 15.7071C39.8946 15.5196 40 15.2652 40 15C40 14.7348 39.8946 14.4804 39.7071 14.2929C39.5196 14.1054 39.2652 14 39 14H37V11.414L41.707 6.707C41.8946 6.51951 41.9999 6.26519 42 6V3C42 2.73478 41.8946 2.48043 41.7071 2.29289C41.5196 2.10536 41.2652 2 41 2H37C36.7348 2 36.4804 2.10536 36.2929 2.29289C36.1054 2.48043 36 2.73478 36 3C36 3.26522 36.1054 3.51957 36.2929 3.70711C36.4804 3.89464 36.7348 4 37 4H40V5.586L35.293 10.293C35.1054 10.4805 35.0001 10.7348 35 11V14H29V11C28.9999 10.7348 28.8946 10.4805 28.707 10.293L24 5.586V4H33C33.2652 4 33.5196 3.89464 33.7071 3.70711C33.8946 3.51957 34 3.26522 34 3C34 2.73478 33.8946 2.48043 33.7071 2.29289C33.5196 2.10536 33.2652 2 33 2H23C22.7348 2 22.4804 2.10536 22.2929 2.29289C22.1054 2.48043 22 2.73478 22 3V6C22.0001 6.26519 22.1054 6.51951 22.293 6.707L27 11.414V14H25C24.7348 14 24.4804 14.1054 24.2929 14.2929C24.1054 14.4804 24 14.7348 24 15C24 15.2652 24.1054 15.5196 24.2929 15.7071C24.4804 15.8946 24.7348 16 25 16H26V21C26 21.2652 26.1054 21.5196 26.2929 21.7071C26.4804 21.8946 26.7348 22 27 22C27.2652 22 27.5196 21.8946 27.7071 21.7071C27.8946 21.5196 28 21.2652 28 21V16H36V24H25C24.7348 24 24.4804 24.1054 24.2929 24.2929C24.1054 24.4804 24 24.7348 24 25V42H22C21.7348 42 21.4804 42.1054 21.2929 42.2929C21.1054 42.4804 21 42.7348 21 43C21 43.2652 21.1054 43.5196 21.2929 43.7071C21.4804 43.8946 21.7348 44 22 44H41V46H22C21.7348 46 21.4804 46.1054 21.2929 46.2929C21.1054 46.4804 21 46.7348 21 47C21 47.2652 21.1054 47.5196 21.2929 47.7071C21.4804 47.8946 21.7348 48 22 48H23V57C23.0016 58.3256 23.5289 59.5964 24.4662 60.5338C25.4036 61.4711 26.6744 61.9984 28 62H36C37.1522 61.9985 38.2687 61.5999 39.1613 60.8713C40.0538 60.1427 40.6679 59.1286 40.9 58H42C43.3256 57.9984 44.5964 57.4711 45.5338 56.5338C46.4711 55.5964 46.9984 54.3256 47 53V51C46.9985 49.8478 46.5999 48.7313 45.8713 47.8387C45.1427 46.9462 44.1286 46.3321 43 46.1V46.1ZM39 48V50.892C36.7495 51.4513 34.3826 51.3182 32.209 50.51C29.906 49.6565 27.4148 49.4426 25 49.891V48H39ZM36 60H28C27.2044 60 26.4413 59.6839 25.8787 59.1213C25.3161 58.5587 25 57.7956 25 57V51.927C27.1679 51.4529 29.4264 51.6111 31.507 52.383C33.9004 53.2793 36.5001 53.4733 39 52.942V57C39 57.7956 38.6839 58.5587 38.1213 59.1213C37.5587 59.6839 36.7956 60 36 60ZM45 53C45 53.7956 44.6839 54.5587 44.1213 55.1213C43.5587 55.6839 42.7956 56 42 56H41V48H42C42.7956 48 43.5587 48.3161 44.1213 48.8787C44.6839 49.4413 45 50.2044 45 51V53Z" fill="#323232"/>
</svg>
